<svg xmlns="http://www.w3.org/2000/svg" viewBox="75 56 400 400" width="512" height="512"><defs><linearGradient id="g" x1="0" y1="0" x2="1" y2="1"><stop offset="0" stop-color="#89afd9"/><stop offset="1" stop-color="#30567f"/></linearGradient><clipPath id="c"><path d="M120 64H298C366 64 408 102 408 156C408 194 388 222 356 238C402 252 430 290 430 340C430 404 382 448 314 448H120ZM200 134H290C316 134 330 148 330 168C330 188 316 204 290 204H200ZM200 274H302C334 274 350 292 350 324C350 356 334 378 302 378H200Z" clip-rule="evenodd"/></clipPath></defs><path d="M120 64H298C366 64 408 102 408 156C408 194 388 222 356 238C402 252 430 290 430 340C430 404 382 448 314 448H120ZM200 134H290C316 134 330 148 330 168C330 188 316 204 290 204H200ZM200 274H302C334 274 350 292 350 324C350 356 334 378 302 378H200Z" fill="url(#g)" fill-rule="evenodd"/><g clip-path="url(#c)"><path d="M120 64L260 64L200 160Z" fill="#fff" opacity="0.18"/><path d="M260 64L408 156L330 168Z" fill="#fff" opacity="0.1"/><path d="M200 204L356 238L290 274Z" fill="#fff" opacity="0.12"/><path d="M120 256L200 160L200 340Z" fill="#000" opacity="0.08"/><path d="M356 238L430 340L350 324Z" fill="#000" opacity="0.12"/><path d="M120 448L200 340L200 448Z" fill="#000" opacity="0.1"/><path d="M200 378L430 340L314 448Z" fill="#000" opacity="0.16"/></g></svg>
